<svg width="317" height="317" viewBox="0 0 317 317" fill="none" xmlns="http://www.w3.org/2000/svg">
<path d="M317 158.5C317 246.037 246.037 317 158.5 317C70.9629 317 0 246.037 0 158.5C0 70.9629 70.9629 0 158.5 0C246.037 0 317 70.9629 317 158.5Z" fill="black"/>
<path fill-rule="evenodd" clip-rule="evenodd" d="M52 132.611C52 83.3382 97.1981 42.7087 155.5 37V78.7755C123.63 82.2564 99.0454 104.602 99.0454 131.648C99.0454 158.694 123.63 181.039 155.5 184.52V228.222C97.1981 222.513 52 181.884 52 132.611Z" fill="white"/>
<path fill-rule="evenodd" clip-rule="evenodd" d="M259 190.389C259 239.662 213.802 280.291 155.5 286L155.5 244.225C187.37 240.744 211.955 218.398 211.955 191.352C211.955 164.306 187.37 141.961 155.5 138.48L155.5 94.7783C213.802 100.487 259 141.116 259 190.389Z" fill="white"/>
</svg>
